<mxfile host="app.diagrams.net" modified="2024-04-02T12:58:14.445Z" agent="Mozilla/5.0 (Windows NT 10.0; Win64; x64) AppleWebKit/537.36 (KHTML, like Gecko) Chrome/123.0.0.0 Safari/537.36" etag="ulPyB6-ixMb6SUIPS0Dg" version="24.1.0" type="github">
  <diagram name="PÃ¡gina-1" id="rqkgY2_GLh2DAySub8YT">
    <mxGraphModel dx="1434" dy="746" grid="1" gridSize="10" guides="1" tooltips="1" connect="1" arrows="1" fold="1" page="1" pageScale="1" pageWidth="827" pageHeight="1169" math="0" shadow="0">
      <root>
        <mxCell id="0" />
        <mxCell id="1" parent="0" />
        <mxCell id="btUuD-uoQYYhcNvsxGG0-1" value="alugueis" style="rounded=1;whiteSpace=wrap;html=1;fillColor=#d5e8d4;strokeColor=#82b366;glass=0;shadow=0;sketch=1;curveFitting=1;jiggle=2;fontStyle=0;labelBackgroundColor=none;fontColor=default;fontFamily=Comic Sans MS;" vertex="1" parent="1">
          <mxGeometry x="544" y="630" width="120" height="60" as="geometry" />
        </mxCell>
        <mxCell id="btUuD-uoQYYhcNvsxGG0-2" value="clientes" style="rounded=1;whiteSpace=wrap;html=1;fillColor=#d5e8d4;strokeColor=#82b366;glass=0;shadow=0;sketch=1;curveFitting=1;jiggle=2;fontStyle=0;labelBackgroundColor=none;fontColor=default;fontFamily=Comic Sans MS;" vertex="1" parent="1">
          <mxGeometry x="160" y="410" width="120" height="60" as="geometry" />
        </mxCell>
        <mxCell id="btUuD-uoQYYhcNvsxGG0-3" value="carros" style="rounded=1;whiteSpace=wrap;html=1;fillColor=#d5e8d4;strokeColor=#82b366;glass=0;shadow=0;sketch=1;curveFitting=1;jiggle=2;fontStyle=0;labelBackgroundColor=none;fontColor=default;fontFamily=Comic Sans MS;" vertex="1" parent="1">
          <mxGeometry x="520" y="410" width="120" height="60" as="geometry" />
        </mxCell>
        <mxCell id="btUuD-uoQYYhcNvsxGG0-4" value="" style="endArrow=none;html=1;rounded=0;exitX=0.5;exitY=0;exitDx=0;exitDy=0;entryX=0.5;entryY=1;entryDx=0;entryDy=0;flowAnimation=0;shadow=0;sketch=1;curveFitting=1;jiggle=2;fontStyle=0;labelBackgroundColor=none;fontColor=default;fontFamily=Comic Sans MS;" edge="1" parent="1" source="btUuD-uoQYYhcNvsxGG0-2" target="btUuD-uoQYYhcNvsxGG0-6">
          <mxGeometry width="50" height="50" relative="1" as="geometry">
            <mxPoint x="390" y="410" as="sourcePoint" />
            <mxPoint x="220" y="340" as="targetPoint" />
          </mxGeometry>
        </mxCell>
        <mxCell id="btUuD-uoQYYhcNvsxGG0-6" value="nome_cliente" style="ellipse;whiteSpace=wrap;html=1;fillColor=#fff2cc;strokeColor=#d6b656;sketch=1;curveFitting=1;jiggle=2;shadow=0;fontStyle=0;labelBackgroundColor=none;fontColor=default;fontFamily=Comic Sans MS;" vertex="1" parent="1">
          <mxGeometry x="70" y="310" width="110" height="60" as="geometry" />
        </mxCell>
        <mxCell id="btUuD-uoQYYhcNvsxGG0-7" value="" style="endArrow=none;html=1;rounded=0;exitX=0.5;exitY=0;exitDx=0;exitDy=0;entryX=0.5;entryY=1;entryDx=0;entryDy=0;flowAnimation=0;shadow=0;sketch=1;curveFitting=1;jiggle=2;fontStyle=0;labelBackgroundColor=none;fontColor=default;fontFamily=Comic Sans MS;" edge="1" parent="1" target="btUuD-uoQYYhcNvsxGG0-8" source="btUuD-uoQYYhcNvsxGG0-2">
          <mxGeometry width="50" height="50" relative="1" as="geometry">
            <mxPoint x="325" y="320" as="sourcePoint" />
            <mxPoint x="325" y="250" as="targetPoint" />
          </mxGeometry>
        </mxCell>
        <mxCell id="btUuD-uoQYYhcNvsxGG0-8" value="cpf_cliente" style="ellipse;whiteSpace=wrap;html=1;dashed=1;dashPattern=1 2;sketch=1;curveFitting=1;jiggle=2;fillColor=#f8cecc;strokeColor=#b85450;fontStyle=0;labelBackgroundColor=none;fontColor=default;fontFamily=Comic Sans MS;" vertex="1" parent="1">
          <mxGeometry x="165" y="270" width="110" height="60" as="geometry" />
        </mxCell>
        <mxCell id="btUuD-uoQYYhcNvsxGG0-9" value="" style="endArrow=none;html=1;rounded=0;exitX=0.5;exitY=0;exitDx=0;exitDy=0;entryX=0.5;entryY=1;entryDx=0;entryDy=0;flowAnimation=0;shadow=0;sketch=1;curveFitting=1;jiggle=2;fontStyle=0;labelBackgroundColor=none;fontColor=default;fontFamily=Comic Sans MS;" edge="1" parent="1" target="btUuD-uoQYYhcNvsxGG0-10" source="btUuD-uoQYYhcNvsxGG0-2">
          <mxGeometry width="50" height="50" relative="1" as="geometry">
            <mxPoint x="245" y="360" as="sourcePoint" />
            <mxPoint x="245" y="290" as="targetPoint" />
          </mxGeometry>
        </mxCell>
        <mxCell id="btUuD-uoQYYhcNvsxGG0-10" value="telefone" style="ellipse;whiteSpace=wrap;html=1;fillColor=#fff2cc;strokeColor=#d6b656;sketch=1;curveFitting=1;jiggle=2;shadow=0;fontStyle=0;labelBackgroundColor=none;fontColor=default;fontFamily=Comic Sans MS;" vertex="1" parent="1">
          <mxGeometry x="260" y="310" width="110" height="60" as="geometry" />
        </mxCell>
        <mxCell id="btUuD-uoQYYhcNvsxGG0-11" value="" style="endArrow=none;html=1;rounded=0;exitX=0.5;exitY=0;exitDx=0;exitDy=0;entryX=0.5;entryY=1;entryDx=0;entryDy=0;sketch=1;curveFitting=1;jiggle=2;fontStyle=0;labelBackgroundColor=none;fontColor=default;fontFamily=Comic Sans MS;" edge="1" parent="1" target="btUuD-uoQYYhcNvsxGG0-12" source="btUuD-uoQYYhcNvsxGG0-3">
          <mxGeometry width="50" height="50" relative="1" as="geometry">
            <mxPoint x="325" y="370" as="sourcePoint" />
            <mxPoint x="325" y="300" as="targetPoint" />
          </mxGeometry>
        </mxCell>
        <mxCell id="btUuD-uoQYYhcNvsxGG0-12" value="modelo" style="ellipse;whiteSpace=wrap;html=1;fillColor=#fff2cc;strokeColor=#d6b656;sketch=1;curveFitting=1;jiggle=2;shadow=0;fontStyle=0;labelBackgroundColor=none;fontColor=default;fontFamily=Comic Sans MS;" vertex="1" parent="1">
          <mxGeometry x="460" y="270" width="110" height="60" as="geometry" />
        </mxCell>
        <mxCell id="btUuD-uoQYYhcNvsxGG0-13" value="" style="endArrow=none;html=1;rounded=0;exitX=0.5;exitY=0;exitDx=0;exitDy=0;entryX=0.5;entryY=1;entryDx=0;entryDy=0;sketch=1;curveFitting=1;jiggle=2;fontStyle=0;labelBackgroundColor=none;fontColor=default;fontFamily=Comic Sans MS;" edge="1" parent="1" target="btUuD-uoQYYhcNvsxGG0-14" source="btUuD-uoQYYhcNvsxGG0-3">
          <mxGeometry width="50" height="50" relative="1" as="geometry">
            <mxPoint x="335" y="450" as="sourcePoint" />
            <mxPoint x="335" y="380" as="targetPoint" />
          </mxGeometry>
        </mxCell>
        <mxCell id="btUuD-uoQYYhcNvsxGG0-14" value="tipo" style="ellipse;whiteSpace=wrap;html=1;fillColor=#fff2cc;strokeColor=#d6b656;sketch=1;curveFitting=1;jiggle=2;shadow=0;fontStyle=0;labelBackgroundColor=none;fontColor=default;fontFamily=Comic Sans MS;" vertex="1" parent="1">
          <mxGeometry x="590" y="270" width="110" height="60" as="geometry" />
        </mxCell>
        <mxCell id="btUuD-uoQYYhcNvsxGG0-15" value="" style="endArrow=none;html=1;rounded=0;entryX=0.5;entryY=1;entryDx=0;entryDy=0;exitX=0.5;exitY=0;exitDx=0;exitDy=0;sketch=1;curveFitting=1;jiggle=2;fontStyle=0;labelBackgroundColor=none;fontColor=default;fontFamily=Comic Sans MS;" edge="1" parent="1" target="btUuD-uoQYYhcNvsxGG0-16" source="btUuD-uoQYYhcNvsxGG0-3">
          <mxGeometry width="50" height="50" relative="1" as="geometry">
            <mxPoint x="585" y="400" as="sourcePoint" />
            <mxPoint x="580" y="260" as="targetPoint" />
          </mxGeometry>
        </mxCell>
        <mxCell id="btUuD-uoQYYhcNvsxGG0-16" value="marca" style="ellipse;whiteSpace=wrap;html=1;fillColor=#fff2cc;strokeColor=#d6b656;sketch=1;curveFitting=1;jiggle=2;shadow=0;fontStyle=0;labelBackgroundColor=none;fontColor=default;fontFamily=Comic Sans MS;" vertex="1" parent="1">
          <mxGeometry x="525" y="210" width="110" height="60" as="geometry" />
        </mxCell>
        <mxCell id="btUuD-uoQYYhcNvsxGG0-17" value="" style="endArrow=none;html=1;rounded=0;exitX=0.5;exitY=0;exitDx=0;exitDy=0;entryX=0.5;entryY=1;entryDx=0;entryDy=0;sketch=1;curveFitting=1;jiggle=2;fontStyle=0;labelBackgroundColor=none;fontColor=default;fontFamily=Comic Sans MS;" edge="1" parent="1" target="btUuD-uoQYYhcNvsxGG0-18" source="btUuD-uoQYYhcNvsxGG0-3">
          <mxGeometry width="50" height="50" relative="1" as="geometry">
            <mxPoint x="570" y="410" as="sourcePoint" />
            <mxPoint x="745" y="400" as="targetPoint" />
          </mxGeometry>
        </mxCell>
        <mxCell id="btUuD-uoQYYhcNvsxGG0-18" value="diaria" style="ellipse;whiteSpace=wrap;html=1;fillColor=#fff2cc;strokeColor=#d6b656;sketch=1;curveFitting=1;jiggle=2;shadow=0;fontStyle=0;labelBackgroundColor=none;fontColor=default;fontFamily=Comic Sans MS;" vertex="1" parent="1">
          <mxGeometry x="650" y="330" width="110" height="60" as="geometry" />
        </mxCell>
        <mxCell id="btUuD-uoQYYhcNvsxGG0-19" value="" style="endArrow=none;html=1;rounded=0;exitX=0.5;exitY=0;exitDx=0;exitDy=0;entryX=0.5;entryY=1;entryDx=0;entryDy=0;sketch=1;curveFitting=1;jiggle=2;fontStyle=0;labelBackgroundColor=none;fontColor=default;fontFamily=Comic Sans MS;" edge="1" parent="1" target="btUuD-uoQYYhcNvsxGG0-20" source="btUuD-uoQYYhcNvsxGG0-3">
          <mxGeometry width="50" height="50" relative="1" as="geometry">
            <mxPoint x="455" y="410" as="sourcePoint" />
            <mxPoint x="455" y="340" as="targetPoint" />
          </mxGeometry>
        </mxCell>
        <mxCell id="btUuD-uoQYYhcNvsxGG0-20" value="placa" style="ellipse;whiteSpace=wrap;html=1;dashed=1;dashPattern=1 2;sketch=1;curveFitting=1;jiggle=2;fillColor=#f8cecc;strokeColor=#b85450;fontStyle=0;labelBackgroundColor=none;fontColor=default;fontFamily=Comic Sans MS;" vertex="1" parent="1">
          <mxGeometry x="400" y="330" width="110" height="60" as="geometry" />
        </mxCell>
        <mxCell id="btUuD-uoQYYhcNvsxGG0-21" value="" style="endArrow=none;html=1;rounded=0;exitX=0.5;exitY=1;exitDx=0;exitDy=0;entryX=0;entryY=0.5;entryDx=0;entryDy=0;sketch=1;curveFitting=1;jiggle=2;fontStyle=0;labelBackgroundColor=none;fontColor=default;fontFamily=Comic Sans MS;" edge="1" parent="1" target="btUuD-uoQYYhcNvsxGG0-22" source="btUuD-uoQYYhcNvsxGG0-1">
          <mxGeometry width="50" height="50" relative="1" as="geometry">
            <mxPoint x="935" y="525" as="sourcePoint" />
            <mxPoint x="935" y="455" as="targetPoint" />
          </mxGeometry>
        </mxCell>
        <mxCell id="btUuD-uoQYYhcNvsxGG0-22" value="reserva" style="ellipse;whiteSpace=wrap;html=1;fillColor=#f8cecc;strokeColor=#b85450;sketch=1;curveFitting=1;jiggle=2;shadow=0;dashed=1;fontStyle=0;labelBackgroundColor=none;fontFamily=Comic Sans MS;dashPattern=1 1;" vertex="1" parent="1">
          <mxGeometry x="690" y="680" width="110" height="60" as="geometry" />
        </mxCell>
        <mxCell id="btUuD-uoQYYhcNvsxGG0-23" value="" style="endArrow=none;html=1;rounded=0;exitX=0.5;exitY=1;exitDx=0;exitDy=0;entryX=0;entryY=0;entryDx=0;entryDy=0;sketch=1;curveFitting=1;jiggle=2;fontStyle=0;labelBackgroundColor=none;fontColor=default;fontFamily=Comic Sans MS;" edge="1" parent="1" target="btUuD-uoQYYhcNvsxGG0-24" source="btUuD-uoQYYhcNvsxGG0-1">
          <mxGeometry width="50" height="50" relative="1" as="geometry">
            <mxPoint x="935" y="610" as="sourcePoint" />
            <mxPoint x="935" y="540" as="targetPoint" />
          </mxGeometry>
        </mxCell>
        <mxCell id="btUuD-uoQYYhcNvsxGG0-24" value="retirada" style="ellipse;whiteSpace=wrap;html=1;fillColor=#fff2cc;strokeColor=#d6b656;sketch=1;curveFitting=1;jiggle=2;shadow=0;fontStyle=0;labelBackgroundColor=none;fontColor=default;fontFamily=Comic Sans MS;" vertex="1" parent="1">
          <mxGeometry x="650" y="750" width="110" height="60" as="geometry" />
        </mxCell>
        <mxCell id="btUuD-uoQYYhcNvsxGG0-25" value="" style="endArrow=none;html=1;rounded=0;exitX=0.5;exitY=1;exitDx=0;exitDy=0;entryX=0.791;entryY=0.067;entryDx=0;entryDy=0;entryPerimeter=0;sketch=1;curveFitting=1;jiggle=2;fontStyle=0;labelBackgroundColor=none;fontColor=default;fontFamily=Comic Sans MS;" edge="1" parent="1" target="btUuD-uoQYYhcNvsxGG0-26" source="btUuD-uoQYYhcNvsxGG0-1">
          <mxGeometry width="50" height="50" relative="1" as="geometry">
            <mxPoint x="595" y="540" as="sourcePoint" />
            <mxPoint x="595" y="470" as="targetPoint" />
          </mxGeometry>
        </mxCell>
        <mxCell id="btUuD-uoQYYhcNvsxGG0-26" value="&amp;nbsp;davoluÃ§ao" style="ellipse;whiteSpace=wrap;html=1;fillColor=#fff2cc;strokeColor=#d6b656;sketch=1;curveFitting=1;jiggle=2;shadow=0;fontStyle=0;labelBackgroundColor=none;fontColor=default;fontFamily=Comic Sans MS;" vertex="1" parent="1">
          <mxGeometry x="450" y="750" width="110" height="60" as="geometry" />
        </mxCell>
        <mxCell id="btUuD-uoQYYhcNvsxGG0-27" value="" style="endArrow=none;html=1;rounded=0;exitX=0.5;exitY=1;exitDx=0;exitDy=0;entryX=1;entryY=0.5;entryDx=0;entryDy=0;sketch=1;curveFitting=1;jiggle=2;fontStyle=0;labelBackgroundColor=none;fontColor=default;fontFamily=Comic Sans MS;" edge="1" parent="1" target="btUuD-uoQYYhcNvsxGG0-28" source="btUuD-uoQYYhcNvsxGG0-1">
          <mxGeometry width="50" height="50" relative="1" as="geometry">
            <mxPoint x="595" y="605" as="sourcePoint" />
            <mxPoint x="595" y="535" as="targetPoint" />
          </mxGeometry>
        </mxCell>
        <mxCell id="btUuD-uoQYYhcNvsxGG0-28" value="dias" style="ellipse;whiteSpace=wrap;html=1;fillColor=#fff2cc;strokeColor=#d6b656;sketch=1;curveFitting=1;jiggle=2;shadow=0;fontStyle=0;labelBackgroundColor=none;fontColor=default;fontFamily=Comic Sans MS;" vertex="1" parent="1">
          <mxGeometry x="400" y="680" width="110" height="60" as="geometry" />
        </mxCell>
        <mxCell id="btUuD-uoQYYhcNvsxGG0-29" value="" style="endArrow=none;html=1;rounded=0;exitX=0.5;exitY=1;exitDx=0;exitDy=0;entryX=0.5;entryY=0;entryDx=0;entryDy=0;sketch=1;curveFitting=1;jiggle=2;fontStyle=0;labelBackgroundColor=none;fontColor=default;fontFamily=Comic Sans MS;" edge="1" parent="1" target="btUuD-uoQYYhcNvsxGG0-30" source="btUuD-uoQYYhcNvsxGG0-1">
          <mxGeometry width="50" height="50" relative="1" as="geometry">
            <mxPoint x="955" y="570" as="sourcePoint" />
            <mxPoint x="955" y="500" as="targetPoint" />
          </mxGeometry>
        </mxCell>
        <mxCell id="btUuD-uoQYYhcNvsxGG0-30" value="status" style="ellipse;whiteSpace=wrap;html=1;fillColor=#fff2cc;strokeColor=#d6b656;sketch=1;curveFitting=1;jiggle=2;shadow=0;fontStyle=0;labelBackgroundColor=none;fontColor=default;fontFamily=Comic Sans MS;" vertex="1" parent="1">
          <mxGeometry x="549" y="790" width="110" height="60" as="geometry" />
        </mxCell>
        <mxCell id="btUuD-uoQYYhcNvsxGG0-31" value="" style="endArrow=none;html=1;rounded=0;entryX=1;entryY=1;entryDx=0;entryDy=0;exitX=0;exitY=0.5;exitDx=0;exitDy=0;sketch=1;curveFitting=1;jiggle=2;fontStyle=0;labelBackgroundColor=none;fontColor=default;fontFamily=Comic Sans MS;" edge="1" parent="1" target="btUuD-uoQYYhcNvsxGG0-32" source="btUuD-uoQYYhcNvsxGG0-1">
          <mxGeometry width="50" height="50" relative="1" as="geometry">
            <mxPoint x="540" y="660" as="sourcePoint" />
            <mxPoint x="395" y="560" as="targetPoint" />
          </mxGeometry>
        </mxCell>
        <mxCell id="btUuD-uoQYYhcNvsxGG0-32" value="placa" style="ellipse;whiteSpace=wrap;html=1;dashed=1;fillColor=#f8cecc;strokeColor=#b85450;sketch=1;curveFitting=1;jiggle=2;fontStyle=0;labelBackgroundColor=none;fontColor=default;fontFamily=Comic Sans MS;dashPattern=1 1;" vertex="1" parent="1">
          <mxGeometry x="410" y="600" width="110" height="60" as="geometry" />
        </mxCell>
        <mxCell id="btUuD-uoQYYhcNvsxGG0-33" value="" style="endArrow=none;html=1;rounded=0;exitX=1;exitY=0.5;exitDx=0;exitDy=0;entryX=0.255;entryY=0.933;entryDx=0;entryDy=0;entryPerimeter=0;sketch=1;curveFitting=1;jiggle=2;fontStyle=0;labelBackgroundColor=none;fontColor=default;fontFamily=Comic Sans MS;" edge="1" parent="1" target="btUuD-uoQYYhcNvsxGG0-34" source="btUuD-uoQYYhcNvsxGG0-1">
          <mxGeometry width="50" height="50" relative="1" as="geometry">
            <mxPoint x="590" y="605" as="sourcePoint" />
            <mxPoint x="465" y="535" as="targetPoint" />
          </mxGeometry>
        </mxCell>
        <mxCell id="btUuD-uoQYYhcNvsxGG0-34" value="cpf_cliente" style="ellipse;whiteSpace=wrap;html=1;dashed=1;fillColor=#f8cecc;strokeColor=#b85450;sketch=1;curveFitting=1;jiggle=2;fontStyle=0;labelBackgroundColor=none;fontColor=default;fontFamily=Comic Sans MS;dashPattern=1 1;" vertex="1" parent="1">
          <mxGeometry x="680" y="600" width="110" height="60" as="geometry" />
        </mxCell>
        <mxCell id="btUuD-uoQYYhcNvsxGG0-35" value="reservas" style="rounded=1;whiteSpace=wrap;html=1;fillColor=#d5e8d4;strokeColor=#82b366;glass=0;shadow=0;sketch=1;curveFitting=1;jiggle=2;fontStyle=0;labelBackgroundColor=none;fontColor=default;fontFamily=Comic Sans MS;" vertex="1" parent="1">
          <mxGeometry x="120" y="640" width="120" height="60" as="geometry" />
        </mxCell>
        <mxCell id="btUuD-uoQYYhcNvsxGG0-36" value="" style="endArrow=none;html=1;rounded=0;exitX=0.5;exitY=1;exitDx=0;exitDy=0;entryX=1;entryY=0;entryDx=0;entryDy=0;sketch=1;curveFitting=1;jiggle=2;fontStyle=0;labelBackgroundColor=none;fontColor=default;fontFamily=Comic Sans MS;" edge="1" parent="1" source="btUuD-uoQYYhcNvsxGG0-35" target="btUuD-uoQYYhcNvsxGG0-37">
          <mxGeometry width="50" height="50" relative="1" as="geometry">
            <mxPoint x="350" y="640" as="sourcePoint" />
            <mxPoint x="180" y="570" as="targetPoint" />
          </mxGeometry>
        </mxCell>
        <mxCell id="btUuD-uoQYYhcNvsxGG0-37" value="placa" style="ellipse;whiteSpace=wrap;html=1;fillColor=#fff2cc;strokeColor=#d6b656;sketch=1;curveFitting=1;jiggle=2;shadow=0;fontStyle=0;labelBackgroundColor=none;fontColor=default;fontFamily=Comic Sans MS;" vertex="1" parent="1">
          <mxGeometry x="30" y="730" width="110" height="60" as="geometry" />
        </mxCell>
        <mxCell id="btUuD-uoQYYhcNvsxGG0-38" value="" style="endArrow=none;html=1;rounded=0;exitX=0.5;exitY=1;exitDx=0;exitDy=0;entryX=0.5;entryY=0;entryDx=0;entryDy=0;sketch=1;curveFitting=1;jiggle=2;fontStyle=0;labelBackgroundColor=none;fontColor=default;fontFamily=Comic Sans MS;" edge="1" parent="1" source="btUuD-uoQYYhcNvsxGG0-35" target="btUuD-uoQYYhcNvsxGG0-39">
          <mxGeometry width="50" height="50" relative="1" as="geometry">
            <mxPoint x="285" y="550" as="sourcePoint" />
            <mxPoint x="285" y="480" as="targetPoint" />
          </mxGeometry>
        </mxCell>
        <mxCell id="btUuD-uoQYYhcNvsxGG0-39" value="cpf_cliente" style="ellipse;whiteSpace=wrap;html=1;fillColor=#fff2cc;strokeColor=#d6b656;sketch=1;curveFitting=1;jiggle=2;shadow=0;fontStyle=0;labelBackgroundColor=none;fontColor=default;fontFamily=Comic Sans MS;" vertex="1" parent="1">
          <mxGeometry x="125" y="780" width="110" height="60" as="geometry" />
        </mxCell>
        <mxCell id="btUuD-uoQYYhcNvsxGG0-40" value="" style="endArrow=none;html=1;rounded=0;exitX=0.5;exitY=1;exitDx=0;exitDy=0;entryX=0.073;entryY=0.25;entryDx=0;entryDy=0;entryPerimeter=0;sketch=1;curveFitting=1;jiggle=2;fontStyle=0;labelBackgroundColor=none;fontColor=default;fontFamily=Comic Sans MS;" edge="1" parent="1" source="btUuD-uoQYYhcNvsxGG0-35" target="btUuD-uoQYYhcNvsxGG0-41">
          <mxGeometry width="50" height="50" relative="1" as="geometry">
            <mxPoint x="205" y="590" as="sourcePoint" />
            <mxPoint x="205" y="520" as="targetPoint" />
          </mxGeometry>
        </mxCell>
        <mxCell id="btUuD-uoQYYhcNvsxGG0-41" value="reserva" style="ellipse;whiteSpace=wrap;html=1;dashed=1;sketch=1;curveFitting=1;jiggle=2;fillColor=#f8cecc;strokeColor=#b85450;fontStyle=0;labelBackgroundColor=none;fontColor=default;fontFamily=Comic Sans MS;" vertex="1" parent="1">
          <mxGeometry x="220" y="730" width="110" height="60" as="geometry" />
        </mxCell>
        <mxCell id="btUuD-uoQYYhcNvsxGG0-42" value="faz" style="rhombus;whiteSpace=wrap;html=1;rounded=0;sketch=1;curveFitting=1;jiggle=2;fillColor=#e1d5e7;strokeColor=#9673a6;fontStyle=0;labelBackgroundColor=none;fontColor=default;fontFamily=Comic Sans MS;" vertex="1" parent="1">
          <mxGeometry x="180" y="530" width="50" height="50" as="geometry" />
        </mxCell>
        <mxCell id="btUuD-uoQYYhcNvsxGG0-43" value="possui" style="rhombus;whiteSpace=wrap;html=1;rounded=0;sketch=1;curveFitting=1;jiggle=2;fillColor=#e1d5e7;strokeColor=#9673a6;fontStyle=0;labelBackgroundColor=none;fontColor=default;fontFamily=Comic Sans MS;" vertex="1" parent="1">
          <mxGeometry x="560" y="520" width="50" height="50" as="geometry" />
        </mxCell>
        <mxCell id="btUuD-uoQYYhcNvsxGG0-44" value="faz" style="rhombus;whiteSpace=wrap;html=1;rounded=0;sketch=1;curveFitting=1;jiggle=2;fillColor=#e1d5e7;strokeColor=#9673a6;fontStyle=0;labelBackgroundColor=none;fontColor=default;fontFamily=Comic Sans MS;" vertex="1" parent="1">
          <mxGeometry x="310" y="650" width="50" height="50" as="geometry" />
        </mxCell>
        <mxCell id="btUuD-uoQYYhcNvsxGG0-45" value="1" style="endArrow=none;html=1;rounded=0;exitX=1;exitY=0;exitDx=0;exitDy=0;entryX=0.5;entryY=1;entryDx=0;entryDy=0;flowAnimation=0;shadow=0;sketch=1;curveFitting=1;jiggle=2;fontStyle=0;labelBackgroundColor=none;fontColor=default;fontFamily=Comic Sans MS;" edge="1" parent="1" source="btUuD-uoQYYhcNvsxGG0-42" target="btUuD-uoQYYhcNvsxGG0-2">
          <mxGeometry x="0.715" y="10" width="50" height="50" relative="1" as="geometry">
            <mxPoint x="280" y="520" as="sourcePoint" />
            <mxPoint x="375" y="480" as="targetPoint" />
            <mxPoint as="offset" />
          </mxGeometry>
        </mxCell>
        <mxCell id="btUuD-uoQYYhcNvsxGG0-46" value="1,2" style="endArrow=none;html=1;rounded=0;exitX=0.5;exitY=0;exitDx=0;exitDy=0;entryX=0.5;entryY=1;entryDx=0;entryDy=0;flowAnimation=0;shadow=0;sketch=1;curveFitting=1;jiggle=2;fontStyle=0;labelBackgroundColor=none;fontColor=default;fontFamily=Comic Sans MS;" edge="1" parent="1" source="btUuD-uoQYYhcNvsxGG0-35" target="btUuD-uoQYYhcNvsxGG0-42">
          <mxGeometry x="-0.4793" y="-15" width="50" height="50" relative="1" as="geometry">
            <mxPoint x="200" y="620" as="sourcePoint" />
            <mxPoint x="295" y="580" as="targetPoint" />
            <mxPoint as="offset" />
          </mxGeometry>
        </mxCell>
        <mxCell id="btUuD-uoQYYhcNvsxGG0-47" value="1" style="endArrow=none;html=1;rounded=0;exitX=1;exitY=0.5;exitDx=0;exitDy=0;entryX=0;entryY=0.5;entryDx=0;entryDy=0;flowAnimation=0;shadow=0;sketch=1;curveFitting=1;jiggle=2;fontStyle=0;labelBackgroundColor=none;fontColor=default;fontFamily=Comic Sans MS;" edge="1" parent="1" source="btUuD-uoQYYhcNvsxGG0-35" target="btUuD-uoQYYhcNvsxGG0-44">
          <mxGeometry x="-0.736" y="11" width="50" height="50" relative="1" as="geometry">
            <mxPoint x="265" y="640" as="sourcePoint" />
            <mxPoint x="360" y="600" as="targetPoint" />
            <mxPoint as="offset" />
          </mxGeometry>
        </mxCell>
        <mxCell id="btUuD-uoQYYhcNvsxGG0-48" value="1" style="endArrow=none;html=1;rounded=0;exitX=1;exitY=0.5;exitDx=0;exitDy=0;entryX=0;entryY=0.5;entryDx=0;entryDy=0;flowAnimation=0;shadow=0;sketch=1;curveFitting=1;jiggle=2;fontStyle=0;labelBackgroundColor=none;fontColor=default;fontFamily=Comic Sans MS;" edge="1" parent="1" source="btUuD-uoQYYhcNvsxGG0-44" target="btUuD-uoQYYhcNvsxGG0-1">
          <mxGeometry x="0.84" y="-9" width="50" height="50" relative="1" as="geometry">
            <mxPoint x="360" y="660" as="sourcePoint" />
            <mxPoint x="455" y="620" as="targetPoint" />
            <mxPoint as="offset" />
          </mxGeometry>
        </mxCell>
        <mxCell id="btUuD-uoQYYhcNvsxGG0-49" value="N" style="endArrow=none;html=1;rounded=0;exitX=0.5;exitY=0;exitDx=0;exitDy=0;entryX=0.5;entryY=1;entryDx=0;entryDy=0;flowAnimation=0;shadow=0;sketch=1;curveFitting=1;jiggle=2;fontStyle=0;labelBackgroundColor=none;fontColor=default;fontFamily=Comic Sans MS;" edge="1" parent="1" source="btUuD-uoQYYhcNvsxGG0-43" target="btUuD-uoQYYhcNvsxGG0-3">
          <mxGeometry x="0.6436" y="11" width="50" height="50" relative="1" as="geometry">
            <mxPoint x="454" y="540" as="sourcePoint" />
            <mxPoint x="549" y="500" as="targetPoint" />
            <mxPoint as="offset" />
          </mxGeometry>
        </mxCell>
        <mxCell id="btUuD-uoQYYhcNvsxGG0-50" value="1,2" style="endArrow=none;html=1;rounded=0;exitX=0.5;exitY=0;exitDx=0;exitDy=0;entryX=0.5;entryY=1;entryDx=0;entryDy=0;flowAnimation=0;shadow=0;sketch=1;curveFitting=1;jiggle=2;fontStyle=0;labelBackgroundColor=none;fontColor=default;fontFamily=Comic Sans MS;" edge="1" parent="1" source="btUuD-uoQYYhcNvsxGG0-1" target="btUuD-uoQYYhcNvsxGG0-43">
          <mxGeometry x="-0.8505" y="-18" width="50" height="50" relative="1" as="geometry">
            <mxPoint x="430" y="560" as="sourcePoint" />
            <mxPoint x="525" y="520" as="targetPoint" />
            <mxPoint as="offset" />
          </mxGeometry>
        </mxCell>
      </root>
    </mxGraphModel>
  </diagram>
</mxfile>
